# xmcd
#
# Track frame offsets:
#  150
#  16749
#  32785
#  59789
#  79103
#  98987
#  133744
#  168018
#
# Disc length: 2560 seconds
#
# Revision: 0
# Processed by: cddbd v1.5.2PL0 Copyright (c) Steve Scherf et al.
# Submitted via: Collectorz.com_Music_Collector 6.11
#
DISCID=6109fe08
DTITLE=Eric Clapton - Blues At The Fillmore [CD2)
DYEAR=1994
DGENRE=Blues
TTITLE0=Someday After A While
TTITLE1=Tore Down
TTITLE2=Have You Ever Loved A Woman
TTITLE3=Crosscut Saw
TTITLE4=Five Long Years
TTITLE5=Crossroads
TTITLE6=Groanin' The Blues
TTITLE7=Ain't Nobody's Business
EXTD=
EXTT0=
EXTT1=
EXTT2=
EXTT3=
EXTT4=
EXTT5=
EXTT6=
EXTT7=
PLAYORDER=
